<?xml version="1.0" standalone="no"?>
<!DOCTYPE svg PUBLIC "-//W3C//DTD SVG 20010904//EN"
 "http://www.w3.org/TR/2001/REC-SVG-20010904/DTD/svg10.dtd">
<svg version="1.0" xmlns="http://www.w3.org/2000/svg"
 width="1814.000000pt" height="434.000000pt" viewBox="0 0 1814.000000 434.000000"
 preserveAspectRatio="xMidYMid meet">
<metadata>
Created by potrace 1.16, written by Peter Selinger 2001-2019
</metadata>
<g transform="translate(0.000000,434.000000) scale(0.100000,-0.100000)"
fill="#000000" stroke="none">
<path d="M9127 4329 c-514 -33 -1017 -259 -1377 -619 -266 -265 -442 -556
-551 -907 -71 -231 -93 -412 -86 -696 5 -213 17 -306 58 -471 11 -43 19 -79
17 -80 -2 -2 -38 -21 -80 -44 -150 -79 -325 -208 -473 -346 -120 -113 -316
-228 -485 -286 -191 -64 -474 -88 -665 -56 -363 62 -695 278 -900 586 -302
455 -302 1066 0 1520 199 298 485 488 860 571 129 29 389 37 511 15 236 -41
459 -149 654 -317 l72 -62 281 282 282 282 -70 66 c-310 291 -735 493 -1152
548 -133 17 -382 20 -521 4 -755 -81 -1388 -517 -1720 -1184 -142 -286 -205
-538 -227 -909 -8 -148 25 -439 70 -606 17 -65 18 -70 6 -70 -16 0 -198 -107
-278 -163 -71 -50 -136 -104 -334 -275 -165 -142 -401 -246 -649 -287 -121
-19 -332 -19 -443 0 -521 91 -947 487 -1078 1003 -29 113 -54 337 -45 403 3
19 8 66 11 104 8 93 55 271 97 370 88 207 232 397 403 530 267 208 577 305
938 293 296 -10 549 -112 795 -321 l84 -70 281 282 282 282 -58 54 c-316 298
-730 498 -1154 559 -129 18 -386 21 -531 5 -785 -85 -1445 -558 -1757 -1258
-132 -296 -187 -557 -187 -891 -1 -216 14 -338 62 -531 188 -749 769 -1347
1505 -1552 227 -63 291 -71 570 -72 216 0 267 3 375 23 442 80 806 260 1139
565 98 90 198 163 289 213 l54 28 46 -54 c80 -97 264 -273 362 -346 316 -237
669 -380 1054 -425 146 -17 461 -7 616 21 428 76 798 259 1120 555 109 100
186 157 284 211 l69 37 55 -64 c356 -415 828 -677 1357 -754 130 -19 431 -22
555 -6 408 54 770 203 1080 442 182 141 386 369 512 571 121 195 233 476 277
694 21 106 39 253 45 372 l3 72 -811 0 -811 0 -70 -128 c-38 -70 -118 -214
-177 -321 -59 -107 -108 -196 -108 -197 0 -2 228 -5 506 -6 l506 -3 -63 -95
c-71 -106 -226 -268 -334 -348 -138 -103 -367 -201 -555 -239 -122 -25 -404
-24 -520 1 -535 116 -942 521 -1062 1057 -30 137 -33 407 -5 539 72 338 252
626 516 826 105 80 313 183 436 218 198 55 454 71 631 41 237 -42 483 -166
672 -339 l43 -40 282 283 282 282 -73 70 c-339 320 -833 534 -1277 555 -60 2
-130 6 -155 7 -25 2 -98 0 -163 -4z"/>
<path d="M12040 3521 c-196 -36 -318 -218 -289 -429 17 -125 105 -239 217
-283 75 -29 213 -32 288 -6 48 17 134 79 134 97 0 4 -21 21 -47 38 l-48 31
-25 -24 c-78 -75 -217 -73 -302 3 -71 64 -101 168 -78 276 34 165 217 247 358
159 l50 -31 42 37 43 37 -38 32 c-22 17 -59 38 -84 47 -56 19 -161 27 -221 16z"/>
<path d="M12710 3516 c-146 -31 -251 -148 -270 -300 -15 -127 24 -255 102
-329 186 -175 505 -124 614 99 37 75 46 213 20 296 -58 182 -253 280 -466 234z
m184 -108 c25 -8 59 -31 88 -59 163 -163 55 -459 -168 -459 -68 0 -113 19
-164 68 -107 104 -108 285 0 393 66 66 148 85 244 57z"/>
<path d="M15195 3517 c-155 -41 -253 -147 -274 -299 -30 -220 92 -390 309
-430 76 -14 230 2 296 32 l44 19 0 180 0 181 -135 0 -135 0 0 -50 0 -50 75 0
75 0 0 -90 c0 -111 -5 -115 -135 -115 -73 0 -98 4 -131 22 -108 58 -158 193
-119 323 34 112 123 180 235 180 55 0 127 -25 162 -56 15 -14 20 -12 57 28 23
23 41 46 41 50 0 10 -63 46 -111 64 -60 21 -192 27 -254 11z"/>
<path d="M13320 3155 l0 -355 210 0 210 0 0 55 0 55 -150 0 -150 0 0 300 0
300 -60 0 -60 0 0 -355z"/>
<path d="M13830 3155 l0 -355 210 0 210 0 0 55 0 55 -150 0 -150 0 0 300 0
300 -60 0 -60 0 0 -355z"/>
<path d="M14340 3155 l0 -355 240 0 240 0 0 55 0 55 -180 0 -180 0 0 100 0
100 165 0 165 0 0 50 0 50 -165 0 -165 0 0 100 0 100 173 2 172 3 0 45 0 45
-232 3 -233 2 0 -355z"/>
<path d="M15720 3155 l0 -355 60 0 60 0 0 355 0 355 -60 0 -60 0 0 -355z"/>
<path d="M16206 3478 c-29 -70 -108 -252 -195 -452 -50 -116 -91 -213 -91
-218 0 -4 30 -8 68 -8 l67 0 30 85 29 85 156 0 157 0 32 -85 32 -85 71 0 c58
0 69 3 64 15 -3 8 -71 168 -152 355 l-147 340 -53 0 c-51 0 -54 -2 -68 -32z
m145 -330 l28 -78 -109 0 -109 0 28 78 c38 100 71 183 78 196 6 9 16 -14 84
-196z"/>
<path d="M16574 3496 c-3 -8 -4 -29 -2 -48 l3 -33 108 -3 107 -3 0 -304 0
-305 65 0 65 0 0 305 0 305 105 0 105 0 0 50 0 50 -275 0 c-228 0 -277 -2
-281 -14z"/>
<path d="M17220 3155 l0 -355 240 0 240 0 0 55 0 55 -180 0 -180 0 0 100 0
100 165 0 165 0 0 50 0 50 -165 0 -165 0 0 100 0 100 176 0 175 0 -3 48 -3 47
-232 3 -233 2 0 -355z"/>
<path d="M12030 2446 c-85 -20 -128 -43 -179 -94 -81 -81 -116 -192 -100 -320
14 -119 90 -232 190 -280 93 -45 221 -51 321 -16 41 14 128 78 128 93 0 5 -21
22 -47 39 l-48 31 -25 -24 c-57 -55 -168 -71 -245 -36 -50 22 -108 86 -126
137 -19 53 -16 180 4 225 64 144 255 198 359 101 l27 -25 46 38 46 37 -27 29
c-58 61 -213 92 -324 65z"/>
<path d="M12723 2450 c-154 -33 -261 -145 -281 -297 -25 -184 51 -333 206
-406 61 -28 76 -31 162 -31 76 0 107 5 155 24 75 29 156 104 192 179 26 51 28
66 28 171 0 102 -3 121 -25 165 -36 74 -114 148 -184 174 -67 25 -188 35 -253
21z m171 -112 c60 -18 131 -92 150 -159 59 -199 -69 -376 -258 -356 -160 16
-252 182 -200 358 19 63 92 142 146 158 47 13 114 13 162 -1z"/>
<path d="M14257 2450 c-120 -30 -177 -97 -177 -208 0 -104 51 -156 200 -207
91 -31 128 -57 135 -98 23 -123 -139 -171 -258 -77 l-28 23 -40 -39 -39 -38
21 -22 c41 -44 116 -68 214 -68 82 -1 95 2 145 29 78 43 111 100 111 190 0
110 -45 162 -181 206 -99 33 -136 55 -150 88 -38 93 86 164 194 111 25 -12 46
-27 46 -33 0 -6 20 9 45 33 51 50 49 57 -26 89 -57 25 -157 35 -212 21z"/>
<path d="M17685 2447 c-151 -39 -253 -149 -273 -296 -43 -313 215 -507 553
-417 101 27 95 12 95 216 l0 180 -135 0 -135 0 0 -50 0 -50 75 0 75 0 0 -94 0
-94 -51 -12 c-108 -26 -227 4 -283 71 -45 53 -59 97 -60 184 0 64 5 90 23 128
42 85 124 137 218 137 54 0 130 -24 157 -49 l22 -21 45 46 44 45 -23 19 c-66
54 -243 83 -347 57z"/>
<path d="M13320 2085 l0 -355 60 0 60 0 0 272 c0 233 2 270 14 258 12 -13 101
-155 275 -442 l54 -88 78 0 79 0 0 355 0 355 -60 0 -60 0 -1 -267 c0 -255 -1
-267 -17 -244 -18 25 -111 174 -239 384 l-78 127 -82 0 -83 0 0 -355z"/>
<path d="M14662 2178 c3 -241 5 -267 24 -308 94 -203 413 -212 514 -14 25 48
25 54 28 317 l3 267 -61 0 -60 0 0 -232 c0 -137 -5 -250 -11 -273 -21 -78 -82
-120 -166 -113 -62 5 -100 29 -125 79 -16 30 -18 66 -18 287 l0 252 -66 0 -66
0 4 -262z"/>
<path d="M15390 2085 l0 -355 210 0 210 0 0 55 0 55 -150 0 -150 0 0 300 0
300 -60 0 -60 0 0 -355z"/>
<path d="M15736 2424 c-3 -9 -6 -31 -6 -50 l0 -34 110 0 110 0 0 -305 0 -305
65 0 65 0 0 305 0 305 105 0 105 0 0 50 0 50 -274 0 c-240 0 -275 -2 -280 -16z"/>
<path d="M16380 2085 l0 -355 60 0 60 0 0 355 0 355 -60 0 -60 0 0 -355z"/>
<path d="M16660 2085 l0 -355 60 0 60 0 0 270 c0 149 3 270 8 270 4 0 22 -26
41 -58 19 -31 57 -95 86 -142 29 -47 87 -142 130 -212 l78 -128 78 0 79 0 0
355 0 355 -60 0 -60 0 -2 -267 -3 -268 -124 200 c-68 110 -143 230 -165 267
l-41 67 -82 1 -83 0 0 -355z"/>
<path d="M12030 1377 c-194 -45 -304 -208 -279 -415 26 -221 218 -348 474
-314 47 6 105 20 130 31 l45 20 0 180 0 181 -135 0 -135 0 0 -50 0 -50 75 0
75 0 0 -90 c0 -107 -3 -109 -119 -117 -63 -5 -85 -2 -122 14 -107 48 -153 122
-153 248 0 122 46 200 144 244 77 35 173 26 248 -25 l34 -22 41 45 42 45 -23
19 c-66 53 -235 81 -342 56z"/>
<path d="M13440 1380 c-117 -25 -220 -111 -260 -218 -30 -79 -30 -205 -1 -282
53 -141 159 -220 314 -236 164 -17 315 64 385 206 35 71 43 210 17 292 -33
104 -116 189 -219 223 -62 20 -175 27 -236 15z m165 -111 c122 -31 196 -175
165 -323 -29 -142 -170 -225 -313 -185 -59 16 -132 92 -151 158 -46 158 21
307 159 352 32 11 93 10 140 -2z"/>
<path d="M12560 1016 l0 -356 60 0 60 0 0 150 0 150 49 0 50 0 60 -112 c33
-62 69 -129 79 -148 19 -35 20 -35 97 -38 42 -2 75 1 72 5 -97 159 -177 295
-176 301 0 4 23 18 52 32 74 37 99 82 95 176 -4 86 -31 129 -105 165 -43 21
-65 24 -220 27 l-173 4 0 -356z m351 216 c50 -56 33 -129 -37 -158 -19 -8 -68
-14 -114 -14 l-80 0 0 106 0 106 101 -4 c99 -4 102 -4 130 -36z"/>
<path d="M14032 1108 c3 -294 8 -316 79 -387 56 -55 112 -76 204 -75 100 0
170 28 221 87 57 68 64 109 64 389 l0 248 -60 0 -60 0 0 -231 c0 -255 -7 -302
-52 -348 -49 -50 -155 -55 -213 -9 -51 40 -55 66 -55 338 l0 250 -66 0 -65 0
3 -262z"/>
<path d="M14750 1016 l0 -356 60 0 59 0 3 148 3 147 103 7 c134 9 198 36 236
101 47 80 35 187 -26 244 -50 47 -93 56 -270 61 l-168 4 0 -356z m314 238 c80
-39 74 -145 -10 -180 -19 -8 -67 -14 -109 -14 l-75 0 0 105 0 105 80 0 c53 0
91 -5 114 -16z"/>
</g>
</svg>
